<svg width="160" height="160" viewBox="0 0 160 160" fill="none" xmlns="http://www.w3.org/2000/svg">
<rect width="160" height="160" rx="50" fill="#FFF9F9"/>
<path d="M42.2761 105.614C35.2761 99.4469 25.4761 82.0136 42.2761 61.6136C35.0762 34.8136 48.6095 44.4469 56.2762 52.6136C77.7762 44.6136 96.1095 50.1136 103.776 52.6136C111.443 44.4469 124.976 34.8136 117.776 61.6136C134.576 82.0136 125.276 101.395 117.776 105.614C83.7762 124.739 53.2762 113.114 42.2761 105.614Z" fill="black" stroke="black"/>
<path d="M52.7578 133.176H49.2227V130.529H52.7578C53.2396 130.529 53.6302 130.448 53.9297 130.285C54.2292 130.122 54.4473 129.898 54.584 129.611C54.7272 129.318 54.7988 128.99 54.7988 128.625C54.7988 128.234 54.7272 127.873 54.584 127.541C54.4473 127.209 54.2292 126.942 53.9297 126.74C53.6302 126.532 53.2396 126.428 52.7578 126.428H50.5117V138H47.084V123.781H52.7578C53.8971 123.781 54.877 123.99 55.6973 124.406C56.5241 124.823 57.1589 125.396 57.6016 126.125C58.0443 126.848 58.2656 127.674 58.2656 128.605C58.2656 129.523 58.0443 130.324 57.6016 131.008C57.1589 131.691 56.5241 132.225 55.6973 132.609C54.877 132.987 53.8971 133.176 52.7578 133.176ZM64.5355 138.195C63.6762 138.195 62.9079 138.062 62.2309 137.795C61.5538 137.521 60.9809 137.147 60.5121 136.672C60.0499 136.197 59.6951 135.65 59.4477 135.031C59.2068 134.413 59.0863 133.758 59.0863 133.068V132.697C59.0863 131.923 59.1938 131.206 59.4086 130.549C59.6234 129.885 59.9424 129.305 60.3656 128.811C60.7888 128.316 61.3194 127.932 61.9574 127.658C62.5954 127.378 63.3376 127.238 64.184 127.238C64.9327 127.238 65.6033 127.359 66.1957 127.6C66.7882 127.84 67.2895 128.186 67.6996 128.635C68.1163 129.084 68.432 129.628 68.6469 130.266C68.8682 130.904 68.9789 131.62 68.9789 132.414V133.752H60.3461V131.691H65.766V131.438C65.7725 131.086 65.7107 130.786 65.5805 130.539C65.4568 130.292 65.2745 130.103 65.0336 129.973C64.7927 129.842 64.4997 129.777 64.1547 129.777C63.7966 129.777 63.5004 129.855 63.266 130.012C63.0382 130.168 62.8591 130.383 62.7289 130.656C62.6052 130.923 62.5173 131.232 62.4652 131.584C62.4132 131.936 62.3871 132.307 62.3871 132.697V133.068C62.3871 133.459 62.4392 133.814 62.5434 134.133C62.654 134.452 62.8103 134.725 63.0121 134.953C63.2204 135.174 63.4678 135.347 63.7543 135.471C64.0473 135.594 64.3793 135.656 64.7504 135.656C65.1996 135.656 65.6423 135.572 66.0785 135.402C66.5147 135.233 66.8891 134.953 67.2016 134.562L68.6957 136.34C68.4809 136.646 68.1749 136.942 67.7777 137.229C67.3871 137.515 66.9184 137.749 66.3715 137.932C65.8246 138.107 65.2126 138.195 64.5355 138.195ZM75.4832 127.434V129.719H69.116V127.434H75.4832ZM70.4539 124.807H73.7449V134.553C73.7449 134.833 73.7775 135.051 73.8426 135.207C73.9077 135.357 74.0184 135.464 74.1746 135.529C74.3374 135.588 74.5522 135.617 74.8191 135.617C75.0079 135.617 75.1642 135.614 75.2879 135.607C75.4116 135.594 75.5288 135.578 75.6395 135.559V137.912C75.3595 138.003 75.0665 138.072 74.7605 138.117C74.4546 138.169 74.129 138.195 73.784 138.195C73.0809 138.195 72.4786 138.085 71.9773 137.863C71.4826 137.642 71.1049 137.294 70.8445 136.818C70.5841 136.343 70.4539 135.725 70.4539 134.963V124.807ZM80.8547 135.656C81.1607 135.656 81.4211 135.601 81.6359 135.49C81.8573 135.373 82.0233 135.21 82.134 135.002C82.2512 134.787 82.3065 134.53 82.3 134.23H85.3957C85.4022 135.025 85.2069 135.721 84.8098 136.32C84.4191 136.913 83.8853 137.375 83.2082 137.707C82.5376 138.033 81.7792 138.195 80.9328 138.195C80.106 138.195 79.3833 138.062 78.7648 137.795C78.1464 137.521 77.6288 137.144 77.2121 136.662C76.802 136.174 76.4927 135.604 76.2844 134.953C76.0826 134.302 75.9816 133.596 75.9816 132.834V132.609C75.9816 131.848 76.0826 131.141 76.2844 130.49C76.4927 129.833 76.802 129.263 77.2121 128.781C77.6288 128.293 78.1431 127.915 78.7551 127.648C79.3736 127.375 80.093 127.238 80.9133 127.238C81.7922 127.238 82.5669 127.404 83.2375 127.736C83.9146 128.068 84.4452 128.55 84.8293 129.182C85.2134 129.813 85.4022 130.578 85.3957 131.477H82.3C82.3065 131.158 82.2577 130.871 82.1535 130.617C82.0493 130.363 81.8866 130.161 81.6652 130.012C81.4504 129.855 81.1737 129.777 80.8352 129.777C80.4966 129.777 80.2232 129.852 80.0148 130.002C79.8065 130.152 79.647 130.36 79.5363 130.627C79.4322 130.887 79.3605 131.187 79.3215 131.525C79.2889 131.864 79.2727 132.225 79.2727 132.609V132.834C79.2727 133.225 79.2889 133.592 79.3215 133.938C79.3605 134.276 79.4354 134.576 79.5461 134.836C79.6568 135.09 79.8163 135.292 80.0246 135.441C80.2329 135.585 80.5096 135.656 80.8547 135.656ZM91.8902 135.344V130.988C91.8902 130.689 91.8479 130.432 91.7633 130.217C91.6786 130.002 91.5452 129.836 91.3629 129.719C91.1806 129.595 90.9365 129.533 90.6305 129.533C90.3831 129.533 90.1715 129.576 89.9957 129.66C89.8199 129.745 89.6865 129.872 89.5953 130.041C89.5042 130.21 89.4586 130.425 89.4586 130.686H86.1676C86.1676 130.197 86.275 129.745 86.4898 129.328C86.7112 128.905 87.0237 128.537 87.4273 128.225C87.8375 127.912 88.3258 127.671 88.8922 127.502C89.4651 127.326 90.1031 127.238 90.8063 127.238C91.6461 127.238 92.3948 127.378 93.0523 127.658C93.7164 127.938 94.2405 128.358 94.6246 128.918C95.0087 129.471 95.2008 130.168 95.2008 131.008V135.334C95.2008 136.024 95.2398 136.548 95.318 136.906C95.3961 137.258 95.5068 137.567 95.65 137.834V138H92.3492C92.193 137.674 92.0758 137.277 91.9977 136.809C91.926 136.333 91.8902 135.845 91.8902 135.344ZM92.2906 131.545L92.3102 133.303H90.8551C90.5491 133.303 90.2887 133.345 90.0738 133.43C89.8655 133.514 89.6962 133.632 89.566 133.781C89.4423 133.924 89.3512 134.087 89.2926 134.27C89.2405 134.452 89.2145 134.644 89.2145 134.846C89.2145 135.041 89.26 135.217 89.3512 135.373C89.4488 135.523 89.579 135.64 89.7418 135.725C89.9046 135.809 90.0869 135.852 90.2887 135.852C90.6533 135.852 90.9625 135.783 91.2164 135.646C91.4768 135.503 91.6754 135.331 91.8121 135.129C91.9488 134.927 92.0172 134.738 92.0172 134.562L92.7398 135.91C92.6096 136.171 92.4599 136.434 92.2906 136.701C92.1279 136.968 91.9228 137.215 91.6754 137.443C91.4345 137.665 91.1383 137.847 90.7867 137.99C90.4352 138.127 90.0087 138.195 89.5074 138.195C88.8564 138.195 88.2574 138.062 87.7105 137.795C87.1702 137.528 86.7372 137.157 86.4117 136.682C86.0862 136.2 85.9234 135.646 85.9234 135.021C85.9234 134.475 86.0211 133.986 86.2164 133.557C86.4182 133.127 86.721 132.762 87.1246 132.463C87.5283 132.163 88.0426 131.936 88.6676 131.779C89.2926 131.623 90.0283 131.545 90.8746 131.545H92.2906ZM99.9473 130.051V138H96.6562V127.434H99.7324L99.9473 130.051ZM103.072 127.355L103.014 130.412C102.883 130.399 102.708 130.383 102.486 130.363C102.265 130.344 102.079 130.334 101.93 130.334C101.546 130.334 101.214 130.38 100.934 130.471C100.66 130.555 100.432 130.686 100.25 130.861C100.074 131.031 99.944 131.245 99.8594 131.506C99.7812 131.766 99.7454 132.069 99.752 132.414L99.1562 132.023C99.1562 131.314 99.2246 130.669 99.3613 130.09C99.5046 129.504 99.7064 128.999 99.9668 128.576C100.227 128.146 100.543 127.818 100.914 127.59C101.285 127.355 101.702 127.238 102.164 127.238C102.327 127.238 102.486 127.248 102.643 127.268C102.805 127.287 102.949 127.316 103.072 127.355ZM108.727 138.195C107.868 138.195 107.099 138.062 106.422 137.795C105.745 137.521 105.172 137.147 104.704 136.672C104.241 136.197 103.886 135.65 103.639 135.031C103.398 134.413 103.278 133.758 103.278 133.068V132.697C103.278 131.923 103.385 131.206 103.6 130.549C103.815 129.885 104.134 129.305 104.557 128.811C104.98 128.316 105.511 127.932 106.149 127.658C106.787 127.378 107.529 127.238 108.375 127.238C109.124 127.238 109.795 127.359 110.387 127.6C110.98 127.84 111.481 128.186 111.891 128.635C112.308 129.084 112.623 129.628 112.838 130.266C113.06 130.904 113.17 131.62 113.17 132.414V133.752H104.537V131.691H109.957V131.438C109.964 131.086 109.902 130.786 109.772 130.539C109.648 130.292 109.466 130.103 109.225 129.973C108.984 129.842 108.691 129.777 108.346 129.777C107.988 129.777 107.692 129.855 107.457 130.012C107.23 130.168 107.051 130.383 106.92 130.656C106.797 130.923 106.709 131.232 106.657 131.584C106.605 131.936 106.579 132.307 106.579 132.697V133.068C106.579 133.459 106.631 133.814 106.735 134.133C106.845 134.452 107.002 134.725 107.204 134.953C107.412 135.174 107.659 135.347 107.946 135.471C108.239 135.594 108.571 135.656 108.942 135.656C109.391 135.656 109.834 135.572 110.27 135.402C110.706 135.233 111.08 134.953 111.393 134.562L112.887 136.34C112.672 136.646 112.366 136.942 111.969 137.229C111.579 137.515 111.11 137.749 110.563 137.932C110.016 138.107 109.404 138.195 108.727 138.195Z" fill="black"/>
</svg>
